<?xml version="1.0" encoding="UTF-8" standalone="no"?>
<!DOCTYPE svg PUBLIC "-//W3C//DTD SVG 1.1//EN" "http://www.w3.org/Graphics/SVG/1.1/DTD/svg11.dtd">
<svg xmlns="http://www.w3.org/2000/svg" xmlns:xlink="http://www.w3.org/1999/xlink" width="456" height="456" viewBox="0 0 456 456">
	<path fill="#ffffff" d="M105.5 281.61c-2.7 0-5-.9-6.89-2.7-1.89-1.85-2.84-4.04-2.84-6.58 0-2.59.94-4.8 2.84-6.65 1.89-1.85 4.19-2.77 6.89-2.77 2.75 0 5.07.92 6.96 2.77 1.94 1.85 2.91 4.06 2.91 6.65 0 2.54-.97 4.73-2.91 6.58-1.89 1.8-4.19 2.7-6.96 2.7z" />
	<path fill="#ffffff" d="M213.56 280.08H195.99L149.7 207.05c-1.17-1.85-2.14-3.77-2.91-5.75h-.41c.36 2.13.54 6.68.54 13.65v65.13h-15.54v-99.36h18.72l44.74 71.3c1.89 2.96 3.11 4.99 3.65 6.1h.27c-.45-2.63-.68-7.09-.68-13.37v-64.02h15.48z" />
	<path fill="#ffffff" d="M289.25 280.08h-54.4v-99.36h52.24v13.99h-36.15v28.13h33.32v13.93h-33.32v29.38h38.32z" />
</svg>
