<?xml version="1.0" standalone="no"?>
<!DOCTYPE svg PUBLIC "-//W3C//DTD SVG 20010904//EN"
 "http://www.w3.org/TR/2001/REC-SVG-20010904/DTD/svg10.dtd">
<svg version="1.0" xmlns="http://www.w3.org/2000/svg"
 width="256.000000pt" height="256.000000pt" viewBox="0 0 256.000000 256.000000"
 preserveAspectRatio="xMidYMid meet">

<g transform="translate(0.000000,256.000000) scale(0.100000,-0.100000)"
fill="#000000" stroke="none">
<path d="M441 2182 c-19 -9 -44 -30 -55 -45 -20 -28 -21 -42 -24 -445 -2 -382
-1 -420 15 -451 25 -48 60 -70 118 -77 l50 -5 73 96 c41 52 77 95 80 95 4 0
40 -43 81 -95 l73 -95 148 0 148 0 3 78 c6 125 56 172 183 172 l67 0 -3 349
c-3 335 -4 351 -24 378 -46 63 -48 63 -494 63 -366 0 -408 -2 -439 -18z m469
-252 l0 -50 135 0 135 0 0 -35 0 -35 -47 0 -48 0 -25 -58 c-13 -31 -47 -85
-73 -121 -39 -50 -46 -65 -36 -73 37 -24 130 -67 182 -84 31 -10 57 -20 57
-23 0 -3 -10 -19 -23 -34 l-22 -29 -70 27 c-39 14 -99 44 -134 66 l-63 40 -47
-30 c-59 -38 -167 -89 -207 -97 -26 -5 -32 -2 -42 21 -7 15 -11 29 -10 30 2 2
37 16 79 33 42 17 97 43 122 59 l46 28 -49 59 c-27 33 -63 88 -80 122 -30 61
-32 63 -73 66 -39 3 -42 5 -42 33 l0 30 128 3 127 3 0 43 c0 51 4 56 47 56
l33 0 0 -50z"/>
<path d="M765 1759 c15 -28 45 -71 67 -95 l41 -45 33 32 c28 27 94 135 94 153
0 3 -59 6 -130 6 l-130 0 25 -51z"/>
<path d="M1632 1108 c-11 -29 -59 -154 -106 -277 -47 -123 -86 -226 -86 -228
0 -2 14 -3 31 -1 29 3 34 9 58 73 l27 70 125 3 125 3 26 -73 c24 -69 27 -73
57 -76 40 -4 48 -35 -79 298 -96 252 -98 255 -128 258 -28 3 -31 0 -50 -50z
m63 -55 c22 -55 85 -236 85 -244 0 -5 -45 -9 -100 -9 -55 0 -100 3 -100 8 0
17 93 262 100 262 4 0 11 -8 15 -17z"/>
<path d="M1130 803 l0 -46 -250 6 c-137 3 -250 3 -250 -1 0 -4 35 -42 78 -85
l77 -77 172 0 172 0 3 -45 3 -46 109 86 c59 48 104 90 100 94 -36 32 -203 161
-208 161 -3 0 -6 -21 -6 -47z"/>
</g>
</svg>
